# xmcd
# Track frame offsets:
# 150
# 2722
# 21095
# 35026
# 46552
# 58159
# 68618
# 84020
# 99958
# 110714
# 125318
# 140523
# 153163
# 168106
# 182724
# 198007
#
# Disc length: 2906 seconds
# Revision: 0
# Processed by: cddbd v1.4PL0 Copyright (c) Steve Scherf et al.
# Submitted via: VisiTrax 2.9.5.180 - For more info visit www.synapsa.com
#
DISCID=bc0b5810
DTITLE=Don Williams - Greatest Hits Live
DYEAR=2002
DGENRE=Country
TTITLE0=Introduction
TTITLE1=Good Ole Boys Like Me
TTITLE2=She's In Love With a Rodeo Man
TTITLE3=Some Broken Hearts Never Mend
TTITLE4=The Ties That Bind
TTITLE5=Louisiana Saturday Night
TTITLE6=Till The Rivers All Run Dry
TTITLE7=I Recall a Gypsy Woman
TTITLE8=It Must Be Love
TTITLE9=Lay Down Beside Me
TTITLE10=Lord, I Hope This Day Is Good
TTITLE11=(I'm Just a) Country Boy
TTITLE12=Tulsa Time
TTITLE13=Amanda
TTITLE14=You're My Best Friend
TTITLE15=I Believe In You
EXTD=
EXTT0=
EXTT1=
EXTT2=
EXTT3=
EXTT4=
EXTT5=
EXTT6=
EXTT7=
EXTT8=
EXTT9=
EXTT10=
EXTT11=
EXTT12=
EXTT13=
EXTT14=
EXTT15=
PLAYORDER=
